# AST/ASF file generated using VICON BodyLanguage
# -----------------------------------------------
:version 1.10
:name VICON
:units
  mass 1.0
  length 0.45
  angle deg
:documentation
   .ast/.asf automatically generated from VICON data using
   VICON BodyBuilder and BodyLanguage model FoxedUp or BRILLIANT.MOD
:root
   order TX TY TZ RX RY RZ
   axis XYZ
   position 0 0 0  
   orientation 0 -0 0 
:bonedata
  begin
     id 1 
     name lhipjoint
     direction 0.515797 -0.759363 0.396637 
     length 2.47888 
     axis 0 -0 0  XYZ
  end
  begin
     id 2 
     name lfemur
     direction 0.34202 -0.939693 0  
     length 6.81885  
     axis 0 -0 20  XYZ
    dof rx ry rz
    limits (-160.0 20.0)
           (-70.0 70.0)
           (-60.0 70.0)
  end
  begin
     id 3 
     name ltibia
     direction 0.342037 -0.939687 0   
     length 7.89258   
     axis 0 -0 20   XYZ
    dof rx
    limits (-10.0 170.0)
  end
  begin
     id 4 
     name lfoot
     direction 0.173497 -0.476678 0.861787   
     length 2.51543   
     axis -90 -1.13533e-015 20   XYZ
    dof rx rz
    limits (-45.0 90.0)
           (-70.0 20.0)
  end
  begin
     id 5 
     name ltoes
     direction 1.53564e-011 -4.21897e-011 1   
     length 1.21388   
     axis -90 -1.13533e-015 20   XYZ
    dof rx
    limits (-90.0 20.0)
  end
  begin
     id 6 
     name rhipjoint
     direction -0.489454 -0.772941 0.403729   
     length 2.43534  
     axis 0 -0 0  XYZ 
  end
  begin
     id 7 
     name rfemur
     direction -0.34202 -0.939693 0   
     length 7.10357   
     axis 0 -0 -20   XYZ
    dof rx ry rz
    limits (-160.0 20.0)
           (-70.0 70.0)
           (-70.0 60.0)
  end
  begin
     id 8 
     name rtibia
     direction -0.34202 -0.939693 0   
     length 9.16127   
     axis 0 -0 -20   XYZ
    dof rx
    limits (-10.0 170.0)
 end
 begin
     id 9 
     name rfoot
     direction -0.270974 -0.748671 0.605033   
     length 1.74894  
     axis -90 1.13533e-015 -20   XYZ
    dof rx rz
    limits (-45.0 90.0)
           (-20.0 70.0)
  end
  begin
     id 10 
     name rtoes
     direction -1.53557e-011 -4.21759e-011 1   
     length 0.787585   
     axis -90 1.13533e-015 -20   XYZ
    dof rx
    limits (-90.0 20.0)
  end
  begin
     id 11 
     name lowerback
     direction -0.0140249 0.999561 0.0260968   
     length 2.16963   
     axis 0 -0 0   XYZ
    dof rx ry rz
    limits (-20.0 45.0)
           (-30.0 30.0)
           (-30.0 30.0)
  end
  begin
     id 12 
     name upperback
     direction 0.00860018 0.999959 -0.002711   
     length 2.1726   
     axis 0 -0 0   XYZ
    dof rx ry rz
    limits (-20.0 45.0)
           (-30.0 30.0)
           (-30.0 30.0)
  end
  begin
     id 13 
     name thorax
     direction 0.015211 0.999782 -0.0143191   
     length 2.17061   
     axis 0 -0 0   XYZ
    dof rx ry rz
    limits (-20.0 45.0)
           (-30.0 30.0)
           (-30.0 30.0)
  end
  begin
     id 14 
     name lowerneck
     direction -0.0140143 0.999447 0.030145   
     length 2.26749   
     axis 0 -0 0   XYZ
    dof rx ry rz
    limits (-20.0 45.0)
           (-30.0 30.0)
           (-30.0 30.0)
  end
  begin
     id 15 
     name upperneck
     direction 0.118062 0.961438 -0.248392   
     length 2.22728   
     axis 0 -0 0   XYZ
    dof rx ry rz
    limits (-20.0 45.0)
           (-30.0 30.0)
           (-30.0 30.0)
  end
  begin
     id 16
     name head
     direction 0.0431885 0.9954 -0.085514  
     length 2.28786  
     axis 0 -0 0   XYZ
    dof rx ry rz
    limits (-20.0 45.0)
           (-30.0 30.0)
           (-30.0 30.0)
  end
  begin
     id 17 
     name lclavicle
     direction 0.912126 0.409548 0.0172323  
     length 4.31571  
     axis 0 -0 0   XYZ
    dof ry rz
    limits (-20.0 10.0)
           (0.0 20.0)
  end
  begin
     id 18 
     name lhumerus
     direction 1 -4.48977e-011 1.93091e-027   
     length 5.13658   
     axis 180 -30 -90   XYZ
    dof rx ry rz
    limits (-60.0 90.0)
           (-90.0 90.0)
           (-90.0 90.0)
  end
  begin
     id 19
     name lradius
     direction 1 -4.48916e-011 6.84018e-027   
     length 3.22473   
     axis 180 -30 -90   XYZ
    dof rx
    limits (-10.0 170.0)
  end
  begin
     id 20
     name lwrist
     direction 1 -4.48987e-011 7.01981e-027   
     length 1.61236   
     axis -4.37994e-015 90 90   XYZ
    dof ry
    limits (-180.0 0.0)
 end
  begin
     id 21 
     name lhand
     direction 1 -4.49037e-011 1.40335e-026   
     length 0.936406   
     axis -8.96029e-015 90 90   XYZ
    dof rx rz
    limits (-90.0 90.0)
           (-45.0 45.0)
  end
  begin
     id 22 
     name lfingers
     direction 1 -4.48886e-011 2.8104e-026   
     length 0.754955   
     axis -1.79203e-014 90 90   XYZ
    dof rx
    limits (0.0 90.0)
  end
  begin
     id 23
     name lthumb
     direction 0.707107 -6.34937e-011 0.707107   
     length 1.08397   
     axis -90 45 -4.48555e-014   XYZ
    dof rx rz
    limits (-45.0 45.0)
           (-45.0 45.0)
  end
  begin
     id 24 
     name rclavicle
     direction -0.947962 0.317997 0.0156638   
     length 4.86918  
     axis 0 -0 0   XYZ 
    dof ry rz
    limits (-10.0 20.0)
           (-20.0 0.0)
  end
  begin
     id 25 
     name rhumerus
     direction -1 -4.48951e-011 2.80534e-018  
     length 5.60911   
     axis 180 30 90   XYZ
    dof rx ry rz
    limits (-90.0 60.0)
           (-90.0 90.0)
           (-90.0 90.0)
  end
  begin
     id 26 
     name rradius
     direction -1 -4.4898e-011 2.11315e-027   
     length 3.38704   
     axis 180 30 90   XYZ
    dof rx
    limits (-10.0 170.0)
  end
  begin
     id 27 
     name rwrist
     direction -1 -4.48933e-011 7.02314e-027   
     length 1.69352   
     axis -4.37994e-015 -90 -90   XYZ
    dof ry
    limits (-180.0 0.0)
  end
  begin
     id 28
     name rhand
     direction -1 -4.48937e-011 1.40458e-026   
     length 0.755878   
     axis -8.96029e-015 -90 -90   XYZ
    dof rx rz
    limits (-90.0 90.0)
           (-45.0 45.0)
  end
  begin
     id 29
     name rfingers
     direction -1 -4.4901e-011 2.80737e-026   
     length 0.609409   
     axis -1.79203e-014 -90 -90   XYZ
    dof rx
    limits (0.0 90.0)
  end
  begin
     id 30
     name rthumb
     direction -0.707107 -6.34968e-011 0.707107   
     length 0.874992   
     axis -90 -45 4.48555e-014   XYZ
    dof rx rz
    limits (-45.0 45.0)
           (-45.0 45.0)
  end
:hierarchy
  begin
    root lhipjoint rhipjoint lowerback
    lhipjoint lfemur
    lfemur ltibia
    ltibia lfoot
    lfoot ltoes
    rhipjoint rfemur
    rfemur rtibia
    rtibia rfoot
    rfoot rtoes
    lowerback upperback
    upperback thorax
    thorax lowerneck lclavicle rclavicle
    lowerneck upperneck
    upperneck head
    lclavicle lhumerus
    lhumerus lradius
    lradius lwrist
    lwrist lhand lthumb
    lhand lfingers
    rclavicle rhumerus
    rhumerus rradius
    rradius rwrist
    rwrist rhand rthumb
    rhand rfingers
  end

#!OML:ASF C:\ViconDB\ViconDB\414\Spring2016\041811\Spring2016.ASF
:FULLY-SPECIFIED
:DEGREES
109
root 7.91067 17.2259 0.511254 -174.307 -2.17532 181.577
lowerback 5.72622 -0.131733 -2.6507
upperback 0.983762 -0.384282 3.55075
thorax -2.15739 -0.22061 5.20618
lowerneck -10.6441 -5.95387 -17.8585
upperneck 15.3953 -9.56221 19.9959
head 8.35707 -4.37681 8.80887
rclavicle 1.66979e-014 2.14687e-014
rhumerus -57.4401 1.19521 -86.1804
rradius 88.9924
rwrist 7.94977
rhand -40.2289 -13.7479
rfingers 7.12502
rthumb -13.1884 -43.3107
lclavicle 1.66979e-014 2.14687e-014
lhumerus -57.0424 -27.4175 101.6
lradius 72.8381
lwrist -19.3823
lhand -34.585 12.1744
lfingers 7.12502
lthumb -7.7442 42.0126
rfemur -29.1534 -12.1601 30.7188
rtibia 53.2958
rfoot -170.995 12.0567
rtoes -11.7912
lfemur -5.92624 0.0506931 -14.0228
ltibia 72.9381
lfoot 16.3689 -8.17642
ltoes -4.33671
110
root 7.90618 17.1213 0.126534 -174.477 -1.2799 182.412
lowerback 5.86817 0.165843 -1.7989
upperback 1.24803 0.0205504 3.89211
thorax -2.00822 -0.0502831 5.04768
lowerneck -10.9089 -5.98928 -17.3734
upperneck 15.3319 -9.4146 19.209
head 8.28761 -4.29267 8.43461
rclavicle -4.07509e-015 1.66979e-014
rhumerus -53.3182 1.48996 -85.9392
rradius 89.3286
rwrist 8.12092
rhand -41.0752 -14.0544
rfingers 7.12502
rthumb -14.0041 -43.5627
lclavicle -4.07509e-015 1.66979e-014
lhumerus -58.2767 -26.3432 101.171
lradius 67.6255
lwrist -18.9898
lhand -35.1156 12.7432
lfingers 7.12502
lthumb -8.25633 42.5619
rfemur -27.4938 -12.6079 31.1792
rtibia 53.5959
rfoot -170.908 14.1349
rtoes -11.391
lfemur -9.02547 1.11951 -12.7202
ltibia 77.3766
lfoot 15.6568 -10.4283
ltoes -4.80868
111
root 7.90573 17.0173 -0.246127 -174.642 -0.528476 183.157
lowerback 6.17803 0.446283 -0.947771
upperback 1.43585 0.40625 4.14243
thorax -2.02189 0.116924 4.79609
lowerneck -11.0031 -6.01136 -16.929
upperneck 15.2467 -9.28835 18.4631
head 8.18978 -4.23289 8.08693
rclavicle 4.77083e-015 2.22639e-014
rhumerus -49.3838 1.5145 -85.8308
rradius 89.9945
rwrist 8.96489
rhand -41.5839 -13.7072
rfingers 7.12502
rthumb -14.4943 -43.181
lclavicle 4.77083e-015 2.22639e-014
lhumerus -60.1022 -26.0447 100.99
lradius 63.0286
lwrist -18.7968
lhand -35.2913 13.374
lfingers 7.12502
lthumb -8.42589 43.186
rfemur -25.7881 -13.0584 31.5018
rtibia 53.8162
rfoot -170.905 16.15
rtoes -11.0819
lfemur -12.283 1.98081 -11.465
ltibia 81.6071
lfoot 14.7023 -12.329
ltoes -4.67346
112
root 7.90298 16.9217 -0.617937 -174.706 0.506784 183.535
lowerback 6.57283 0.481684 -0.435046
upperback 1.56243 0.959516 4.1536
thorax -2.15129 0.591664 4.46189
lowerneck -11.2331 -5.98118 -16.4424
upperneck 15.3175 -9.16199 17.8917
head 8.1768 -4.16214 7.80354
rclavicle -6.16232e-015 -3.4191e-014
rhumerus -45.715 1.623 -86.0785
rradius 91.1255
rwrist 9.95374
rhand -41.5452 -13.7875
rfingers 7.12502
rthumb -14.457 -43.2639
lclavicle -6.16232e-015 -3.4191e-014
lhumerus -62.6167 -26.2436 100.994
lradius 59.6741
lwrist -17.644
lhand -35.1319 13.1979
lfingers 7.12502
lthumb -8.27204 43.0159
rfemur -24.0728 -13.1849 31.3347
rtibia 53.8659
rfoot -170.763 18.174
rtoes -10.8528
lfemur -15.7212 3.02061 -10.7801
ltibia 85.5353
lfoot 13.5537 -13.6164
ltoes -4.92479
113
root 7.9091 16.8339 -0.99449 -174.81 1.41939 183.758
lowerback 6.87899 0.752736 -0.192454
upperback 1.80884 1.35733 4.16467
thorax -2.09486 0.795138 4.29884
lowerneck -11.7729 -5.97112 -15.7443
upperneck 15.3654 -8.98781 17.0972
head 8.18589 -4.05087 7.40465
rclavicle -5.96354e-016 3.73715e-014
rhumerus -42.149 1.74606 -86.6111
rradius 92.9256
rwrist 11.464
rhand -40.5242 -13.1291
rfingers 7.12502
rthumb -13.473 -42.6734
lclavicle -5.96354e-016 3.73715e-014
lhumerus -65.5093 -26.3572 101.147
lradius 57.6275
lwrist -17.1515
lhand -34.5796 12.8832
lfingers 7.12502
lthumb -7.73904 42.7216
rfemur -22.1166 -13.3592 31.0005
rtibia 53.6605
rfoot -170.867 19.9681
rtoes -10.7491
lfemur -19.0808 3.94177 -10.2644
ltibia 88.9747
lfoot 12.2611 -14.4274
ltoes -4.89656
114
root 7.90177 16.7645 -1.36708 -174.467 2.4944 184.128
lowerback 6.85185 1.11011 0.470979
upperback 1.98501 1.88365 4.08094
thorax -1.9157 1.05831 3.7904
lowerneck -12.2167 -6.00522 -15.4107
upperneck 15.1025 -8.90706 16.8742
head 8.14205 -3.97389 7.26187
rclavicle 1.94809e-014 5.56597e-015
rhumerus -38.7067 1.99563 -87.4703
rradius 95.0835
rwrist 12.9433
rhand -40.2225 -12.1947
rfingers 7.12502
rthumb -13.1822 -41.7579
lclavicle 1.94809e-014 5.56597e-015
lhumerus -68.599 -26.7828 101.449
lradius 56.4539
lwrist -17.0256
lhand -34.0185 12.4322
lfingers 7.12502
lthumb -7.19744 42.2898
rfemur -20.5611 -13.3259 30.8739
rtibia 53.1861
rfoot -170.838 21.5072
rtoes -10.6343
lfemur -23.0378 5.11429 -9.78408
ltibia 92.0278
lfoot 10.6129 -14.7003
ltoes -5.42655
115
root 7.90468 16.7164 -1.74944 -174.258 3.35714 184.212
lowerback 7.00921 1.4694 0.794614
upperback 2.12593 2.3797 3.88899
thorax -1.86862 1.30393 3.36216
lowerneck -12.537 -6.10276 -15.1417
upperneck 14.6759 -8.95965 16.8786
head 8.06119 -3.95866 7.19272
rclavicle -7.15625e-015 -1.03368e-014
rhumerus -35.7675 2.66898 -88.4436
rradius 98.0571
rwrist 12.8903
rhand -39.9999 -11.9134
rfingers 7.12502
rthumb -12.9677 -41.4904
lclavicle -7.15625e-015 -1.03368e-014
lhumerus -71.8902 -27.3402 101.884
lradius 56.1733
lwrist -16.8594
lhand -33.5426 11.647
lfingers 7.12502
lthumb -6.73806 41.5198
rfemur -18.5825 -13.3397 30.4183
rtibia 52.2806
rfoot -170.919 22.826
rtoes -10.6636
lfemur -26.7241 5.96998 -9.67048
ltibia 94.4323
lfoot 8.64606 -14.4059
ltoes -6.32195
116
root 7.91868 16.6967 -2.13746 -174.117 4.23844 184.357
lowerback 7.30765 1.8404 0.893253
upperback 2.24186 2.89041 3.81331
thorax -1.93365 1.56067 3.17443
lowerneck -12.7846 -6.05806 -14.7033
upperneck 14.1806 -8.76418 16.5513
head 7.87572 -3.83991 7.0082
rclavicle 7.35503e-015 3.65764e-014
rhumerus -33.1743 3.83436 -89.2955
rradius 101.334
rwrist 12.6475
rhand -39.2101 -11.3604
rfingers 7.12502
rthumb -12.2062 -40.9843
lclavicle 7.35503e-015 3.65764e-014
lhumerus -75.1959 -27.6217 102.262
lradius 56.5943
lwrist -17.1689
lhand -32.8616 10.4344
lfingers 7.12502
lthumb -6.08063 40.3271
rfemur -16.299 -12.722 29.9872
rtibia 51.0305
rfoot -171.172 23.6675
rtoes -10.4239
lfemur -30.1439 6.84112 -9.43469
ltibia 96.171
lfoot 6.40996 -13.6467
ltoes -7.15913
117
root 7.92723 16.6815 -2.54374 -173.871 4.81987 184.488
lowerback 7.36363 2.20077 1.09196
upperback 2.26545 3.37337 3.63749
thorax -1.94286 1.79762 2.83423
lowerneck -12.6953 -6.09289 -14.5698
upperneck 13.4311 -8.82106 16.9667
head 7.64507 -3.83813 7.10832
rclavicle 7.15625e-015 2.3059e-014
rhumerus -31.0031 5.32953 -90.2598
rradius 104.815
rwrist 11.1639
rhand -39.0724 -10.9177
rfingers 7.12502
rthumb -12.0735 -40.5494
lclavicle 7.15625e-015 2.3059e-014
lhumerus -78.7715 -28.3119 102.822
lradius 57.7342
lwrist -17.1679
lhand -32.5367 9.83795
lfingers 7.12502
lthumb -5.76696 39.7395
rfemur -13.8235 -12.3883 29.6814
rtibia 49.2621
rfoot -171.073 24.2796
rtoes -9.97599
lfemur -33.5588 7.38 -9.38239
ltibia 97.3477
lfoot 4.1337 -12.5896
ltoes -8.58487
118
root 7.94275 16.7007 -2.95984 -173.643 5.77373 184.607
lowerback 7.36441 2.7758 1.07256
upperback 2.33743 4.12676 3.50915
thorax -1.89295 2.17083 2.64475
lowerneck -12.388 -6.19945 -14.3553
upperneck 12.4062 -8.91875 17.1487
head 7.28141 -3.87825 7.1031
rclavicle 3.43897e-014 -2.70347e-014
rhumerus -29.0981 7.03234 -90.8486
rradius 108.615
rwrist 9.69112
rhand -38.6323 -11.3388
rfingers 7.12502
rthumb -11.6491 -40.995
lclavicle 3.43897e-014 -2.70347e-014
lhumerus -82.0317 -28.7926 103.348
lradius 59.1264
lwrist -17.1453
lhand -32.3401 9.35985
lfingers 7.12502
lthumb -5.57711 39.2665
rfemur -11.2555 -11.2539 29.3207
rtibia 47.2644
rfoot -170.971 24.4008
rtoes -9.58253
lfemur -36.5496 8.28452 -9.42785
ltibia 97.7496
lfoot 1.73667 -11.2523
ltoes -9.27658
